<svg width="100" height="100" viewBox="0 0 100 100" fill="none" xmlns="http://www.w3.org/2000/svg">
<path d="M11.5159 36.4352C11.8012 36.7205 12.1759 36.864 12.5505 36.864C12.9251 36.864 13.2997 36.7213 13.5858 36.4352C14.1572 35.8638 14.1572 34.9368 13.5858 34.3653L10.032 30.8115L13.5858 27.2585C14.1572 26.6863 14.1572 25.7601 13.5858 25.1886C13.0143 24.6172 12.0874 24.6172 11.5159 25.1886L6.92755 29.777C6.65289 30.0516 6.49878 30.424 6.49878 30.8115C6.49878 31.1999 6.65289 31.5722 6.92755 31.8468L11.5159 36.4352Z" fill="#595959"/>
<path d="M26.0393 30.8116L22.4855 34.3654C21.9141 34.9368 21.9141 35.8638 22.4863 36.4352C22.7716 36.7206 23.1462 36.864 23.5208 36.864C23.8954 36.864 24.2701 36.7206 24.5554 36.4352L29.1445 31.8461C29.716 31.2747 29.716 30.3477 29.1445 29.777L24.5554 25.1879C23.984 24.6164 23.0577 24.6164 22.4863 25.1879C21.9141 25.7601 21.9141 26.6863 22.4863 27.2578L26.0393 30.8116Z" fill="#595959"/>
<path d="M15.854 36.7625C16.0295 36.8312 16.2111 36.864 16.3888 36.864C16.9732 36.864 17.5249 36.5115 17.7514 35.9355L21.3564 26.758C21.6524 26.0058 21.2816 25.1566 20.5293 24.8606C19.7778 24.5653 18.9279 24.9354 18.6326 25.6876L15.027 34.8651C14.7317 35.6174 15.1017 36.4673 15.854 36.7625Z" fill="#595959"/>
<path d="M8.79066 45.4502H18.6502C19.4582 45.4502 20.1135 44.7948 20.1135 43.9861C20.1135 43.1781 19.4582 42.5228 18.6502 42.5228H8.79066C7.98194 42.5228 7.32733 43.1781 7.32733 43.9861C7.32733 44.7948 7.98194 45.4502 8.79066 45.4502Z" fill="#595959"/>
<path d="M41.3585 42.5228H24.0244C23.2164 42.5228 22.5611 43.1781 22.5611 43.9861C22.5611 44.7948 23.2164 45.4502 24.0244 45.4502H41.3585C42.1672 45.4502 42.8226 44.7948 42.8226 43.9861C42.8226 43.1781 42.1672 42.5228 41.3585 42.5228Z" fill="#595959"/>
<path d="M8.79066 51.6232H12.9907C13.7986 51.6232 14.454 50.9678 14.454 50.1591C14.454 49.3511 13.7986 48.6957 12.9907 48.6957H8.79066C7.98194 48.6957 7.32733 49.3511 7.32733 50.1591C7.32733 50.9678 7.98194 51.6232 8.79066 51.6232Z" fill="#595959"/>
<path d="M36.0042 48.6957C35.1954 48.6957 34.5408 49.3511 34.5408 50.1591C34.5408 50.9678 35.1954 51.6232 36.0042 51.6232H38.5616C39.3703 51.6232 40.0256 50.9678 40.0256 50.1591C40.0256 49.3511 39.3703 48.6957 38.5616 48.6957H36.0042Z" fill="#595959"/>
<path d="M32.152 50.1591C32.152 49.3511 31.4967 48.6957 30.6887 48.6957H18.126C17.3173 48.6957 16.6627 49.3511 16.6627 50.1591C16.6627 50.9678 17.3173 51.6232 18.126 51.6232H30.6887C31.4967 51.6232 32.152 50.9678 32.152 50.1591Z" fill="#595959"/>
<path d="M41.7392 50.1591C41.7392 50.9678 42.3946 51.6232 43.2025 51.6232H47.9931C48.8018 51.6232 49.4572 50.9678 49.4572 50.1591C49.4572 49.3511 48.8018 48.6957 47.9931 48.6957H43.2025C42.3946 48.6957 41.7392 49.3511 41.7392 50.1591Z" fill="#595959"/>
<path d="M33.7687 31.9857H38.8217C39.6304 31.9857 40.2858 31.3303 40.2858 30.5216C40.2858 29.7137 39.6304 29.0583 38.8217 29.0583H33.7687C32.96 29.0583 32.3046 29.7137 32.3046 30.5216C32.3046 31.3303 32.96 31.9857 33.7687 31.9857Z" fill="#595959"/>
<path d="M44.4812 31.9857H75.3126C76.1213 31.9857 76.776 31.3303 76.776 30.5216C76.776 29.7137 76.1213 29.0583 75.3126 29.0583H44.4812C43.6725 29.0583 43.0172 29.7137 43.0172 30.5216C43.0172 31.3303 43.6725 31.9857 44.4812 31.9857Z" fill="#595959"/>
<path d="M70.6297 35.4976H58.1402C57.3323 35.4976 56.6769 36.1529 56.6769 36.9617C56.6769 37.7696 57.3323 38.425 58.1402 38.425H70.6297C71.4376 38.425 72.093 37.7696 72.093 36.9617C72.093 36.1529 71.4376 35.4976 70.6297 35.4976Z" fill="#595959"/>
<path d="M53.4573 35.4976H49.1642C48.3555 35.4976 47.7009 36.1529 47.7009 36.9617C47.7009 37.7696 48.3555 38.425 49.1642 38.425H53.4573C54.266 38.425 54.9206 37.7696 54.9206 36.9617C54.9206 36.1529 54.266 35.4976 53.4573 35.4976Z" fill="#595959"/>
<path d="M33.7687 38.425H44.2859C45.0939 38.425 45.7492 37.7696 45.7492 36.9617C45.7492 36.1529 45.0939 35.4976 44.2859 35.4976H33.7687C32.96 35.4976 32.3046 36.1529 32.3046 36.9617C32.3046 37.7696 32.96 38.425 33.7687 38.425Z" fill="#595959"/>
<path d="M30.707 54.8168H20.8482C20.0395 54.8168 19.3842 55.4722 19.3842 56.2802C19.3842 57.0881 20.0395 57.7435 20.8482 57.7435H30.707C31.515 57.7435 32.1704 57.0881 32.1704 56.2802C32.1704 55.4722 31.515 54.8168 30.707 54.8168Z" fill="#595959"/>
<path d="M16.3652 54.8168H8.79066C7.98194 54.8168 7.32733 55.4722 7.32733 56.2802C7.32733 57.0881 7.98194 57.7435 8.79066 57.7435H16.3652C17.1739 57.7435 17.8285 57.0881 17.8285 56.2802C17.8285 55.4722 17.1739 54.8168 16.3652 54.8168Z" fill="#595959"/>
<path d="M48.579 54.8168H35.6997C34.891 54.8168 34.2364 55.4722 34.2364 56.2802C34.2364 57.0881 34.891 57.7435 35.6997 57.7435H48.579C49.387 57.7435 50.0424 57.0881 50.0424 56.2802C50.0424 55.4722 49.387 54.8168 48.579 54.8168Z" fill="#595959"/>
<path d="M65.9963 47.2988H58.9536C58.1456 47.2988 57.4902 47.9542 57.4902 48.7621C57.4902 49.5708 58.1456 50.2262 58.9536 50.2262H65.9963C66.805 50.2262 67.4596 49.5708 67.4596 48.7621C67.4596 47.9542 66.805 47.2988 65.9963 47.2988Z" fill="#595959"/>
<path d="M78.2171 50.2262H88.1591C88.9678 50.2262 89.6232 49.5708 89.6232 48.7621C89.6232 47.9542 88.9678 47.2988 88.1591 47.2988H78.2171C77.4084 47.2988 76.7538 47.9542 76.7538 48.7621C76.7538 49.5708 77.4092 50.2262 78.2171 50.2262Z" fill="#595959"/>
<path d="M73.2458 47.2988H70.9677C70.1589 47.2988 69.5036 47.9542 69.5036 48.7621C69.5036 49.5708 70.1589 50.2262 70.9677 50.2262H73.2458C74.0545 50.2262 74.7091 49.5708 74.7091 48.7621C74.7091 47.9542 74.0545 47.2988 73.2458 47.2988Z" fill="#595959"/>
<path d="M58.9536 66.1748H65.9963C66.805 66.1748 67.4596 65.5202 67.4596 64.7115C67.4596 63.9035 66.805 63.2482 65.9963 63.2482H58.9536C58.1456 63.2482 57.4902 63.9035 57.4902 64.7115C57.4902 65.5202 58.1456 66.1748 58.9536 66.1748Z" fill="#595959"/>
<path d="M78.2171 66.1748H88.1591C88.9678 66.1748 89.6232 65.5202 89.6232 64.7115C89.6232 63.9035 88.9678 63.2482 88.1591 63.2482H78.2171C77.4084 63.2482 76.7538 63.9035 76.7538 64.7115C76.7538 65.5202 77.4092 66.1748 78.2171 66.1748Z" fill="#595959"/>
<path d="M70.9677 66.1748H73.2458C74.0545 66.1748 74.7099 65.5202 74.7099 64.7115C74.7099 63.9035 74.0545 63.2482 73.2458 63.2482H70.9677C70.1589 63.2482 69.5043 63.9035 69.5043 64.7115C69.5043 65.5202 70.1589 66.1748 70.9677 66.1748Z" fill="#595959"/>
<path d="M65.9963 79.1975H58.9536C58.1456 79.1975 57.4902 79.8529 57.4902 80.6608C57.4902 81.4688 58.1456 82.1242 58.9536 82.1242H65.9963C66.805 82.1242 67.4596 81.4688 67.4596 80.6608C67.4596 79.8529 66.805 79.1975 65.9963 79.1975Z" fill="#595959"/>
<path d="M88.1591 79.1975H78.2171C77.4084 79.1975 76.7538 79.8529 76.7538 80.6608C76.7538 81.4688 77.4084 82.1242 78.2171 82.1242H88.1591C88.9678 82.1242 89.6232 81.4688 89.6232 80.6608C89.6232 79.8529 88.9678 79.1975 88.1591 79.1975Z" fill="#595959"/>
<path d="M73.2458 79.1975H70.9677C70.1589 79.1975 69.5036 79.8529 69.5036 80.6608C69.5036 81.4688 70.1589 82.1242 70.9677 82.1242H73.2458C74.0545 82.1242 74.7091 81.4688 74.7091 80.6608C74.7091 79.8529 74.0545 79.1975 73.2458 79.1975Z" fill="#595959"/>
<path d="M93.56 0H6.44155C2.89004 0 0 2.88927 0 6.44155V77.2558C0 80.8074 2.89004 83.6966 6.44155 83.6966H11.9492C12.7572 83.6966 13.4126 83.042 13.4126 82.2333C13.4126 81.4253 12.7572 80.77 11.9492 80.77H6.44155C4.50367 80.77 2.92742 79.1937 2.92742 77.2558V71.7039H56.2474V74.2262H55.0869C53.4992 74.2262 52.2083 75.5171 52.2083 77.1048V80.77H20.8475C20.0395 80.77 19.3842 81.4253 19.3842 82.2333C19.3842 83.042 20.0395 83.6966 20.8475 83.6966H34.9192V88.9457H30.5003C27.5522 88.9457 25.1543 91.3444 25.1543 94.2916V97.4533C25.1543 98.7984 26.2484 99.8924 27.5934 99.8924H72.2959C73.641 99.8924 74.7351 98.7984 74.7351 97.4533V94.2916C74.7351 91.3444 72.3371 88.9457 69.3891 88.9457H64.9701V87.0955H92.0265C93.6134 87.0955 94.9043 85.8046 94.9043 84.2169V83.528C97.7569 82.8658 99.8894 80.3061 99.8894 77.2558L100 6.44078C100.001 2.88927 97.1115 0 93.56 0ZM55.1358 68.2195V61.2042H91.9776V68.2195H55.1358ZM59.174 58.2768V55.1976H87.9386V58.2768H59.174ZM87.9386 71.1462V74.2262H59.174V71.1462H87.9386ZM37.8459 83.6966H52.2083V84.2177C52.2083 85.8046 53.4992 87.0955 55.0869 87.0955H62.0435V88.9457H37.8459V83.6966ZM69.3899 91.8731C70.7235 91.8731 71.8084 92.958 71.8084 94.2916V96.9658H28.081V94.2916C28.081 92.958 29.1666 91.8731 30.5003 91.8731H69.3899ZM91.9776 84.1681H55.1358V77.1536H91.9776V84.1681ZM96.9627 77.2558C96.9627 78.6734 96.1174 79.8949 94.9051 80.4495V77.104C94.9051 75.5171 93.6134 74.2262 92.0265 74.2262H90.866V71.7039H96.9627V77.2558ZM96.9627 68.7772H94.857C94.8867 68.6117 94.9051 61.1554 94.9051 61.1554C94.9051 59.5677 93.6134 58.2768 92.0265 58.2768H90.866V55.1976H92.0265C93.6134 55.1976 94.9051 53.9059 94.9051 52.319V45.206C94.9051 43.6191 93.6134 42.3274 92.0265 42.3274H83.7599C82.9512 42.3274 82.2966 42.9828 82.2966 43.7915C82.2966 44.5995 82.9512 45.2549 83.7599 45.2549H91.9776V52.2701H55.1358V45.2549H74.6534C75.4622 45.2549 76.1168 44.5995 76.1168 43.7915C76.1168 42.9828 75.4622 42.3274 74.6534 42.3274H55.0869C53.4992 42.3274 52.2083 43.6191 52.2083 45.206V52.319C52.2083 53.9059 53.4992 55.1976 55.0869 55.1976H56.2474V58.2768H55.0869C53.4992 58.2768 52.2083 59.5685 52.2083 61.1554C52.2083 61.1554 52.2267 68.6117 52.2564 68.7772H2.92742V19.9083H96.9627V68.7772ZM96.9627 16.9809H3.035V6.44078C3.035 4.50367 4.61124 2.92742 6.54912 2.92742H93.4486C95.3865 2.92742 96.9627 4.50367 96.9627 6.44155V16.9809Z" fill="#595959"/>
<path d="M10.7934 5.61755C8.42522 5.61755 6.49878 7.54399 6.49878 9.91217C6.49878 12.2804 8.42522 14.2076 10.7934 14.2076C13.1616 14.2076 15.0888 12.2804 15.0888 9.91217C15.0888 7.54399 13.1616 5.61755 10.7934 5.61755ZM10.7934 11.2801C10.0396 11.2801 9.42544 10.6667 9.42544 9.91217C9.42544 9.15838 10.0396 8.54421 10.7934 8.54421C11.548 8.54421 12.1614 9.15838 12.1614 9.91217C12.1614 10.6667 11.548 11.2801 10.7934 11.2801Z" fill="#595959"/>
<path d="M21.7287 5.61755C19.3605 5.61755 17.4333 7.54399 17.4333 9.91217C17.4333 12.2804 19.3605 14.2076 21.7287 14.2076C24.0969 14.2076 26.0233 12.2804 26.0233 9.91217C26.0233 7.54399 24.0961 5.61755 21.7287 5.61755ZM21.7287 11.2801C20.9741 11.2801 20.3607 10.6667 20.3607 9.91217C20.3607 9.15838 20.9741 8.54421 21.7287 8.54421C22.4825 8.54421 23.0967 9.15838 23.0967 9.91217C23.0967 10.6667 22.4825 11.2801 21.7287 11.2801Z" fill="#595959"/>
<path d="M32.6632 5.61755C30.295 5.61755 28.3686 7.54399 28.3686 9.91217C28.3686 12.2804 30.295 14.2076 32.6632 14.2076C35.0314 14.2076 36.9586 12.2804 36.9586 9.91217C36.9586 7.54399 35.0314 5.61755 32.6632 5.61755ZM32.6632 11.2801C31.9094 11.2801 31.2952 10.6667 31.2952 9.91217C31.2952 9.15838 31.9094 8.54421 32.6632 8.54421C33.4178 8.54421 34.0312 9.15838 34.0312 9.91217C34.0312 10.6667 33.4178 11.2801 32.6632 11.2801Z" fill="#595959"/>
</svg>
