<svg width="26" height="32" viewBox="0 0 26 32" fill="none" xmlns="http://www.w3.org/2000/svg">
<path d="M17.0759 0.244898C16.9306 0.0918671 16.7314 0 16.525 0H4.16375C1.88279 0 0 1.8753 0 4.15602V27.5311C0 29.8121 1.88279 31.6874 4.16375 31.6874H20.9411C23.2221 31.6874 25.1049 29.8121 25.1049 27.5311V8.97034C25.1049 8.77137 25.013 8.58014 24.8829 8.43461L17.0759 0.244898ZM17.2978 2.70186L22.5256 8.18971H19.1272C18.1169 8.18971 17.2978 7.37838 17.2978 6.36808V2.70186ZM20.9411 30.1566H4.16375C2.73256 30.1566 1.5308 28.9703 1.5308 27.5311V4.15602C1.5308 2.72483 2.72483 1.5308 4.16375 1.5308H15.7671V6.36808C15.7671 8.22791 17.2674 9.7205 19.1272 9.7205H23.5741V27.5311C23.5741 28.9703 22.38 30.1566 20.9411 30.1566Z" fill="black"/>
<path d="M18.8516 24.8754H6.25319C5.83229 24.8754 5.48779 25.2197 5.48779 25.6408C5.48779 26.0617 5.83229 26.4062 6.25319 26.4062H18.8593C19.2802 26.4062 19.6247 26.0617 19.6247 25.6408C19.6247 25.2197 19.2802 24.8754 18.8516 24.8754Z" fill="black"/>
<path d="M11.9937 22.1276C12.1392 22.2807 12.3382 22.3725 12.5524 22.3725C12.7668 22.3725 12.9658 22.2807 13.1111 22.1276L17.5964 17.3133C17.8872 17.007 17.8642 16.5172 17.5582 16.2341C17.2519 15.9433 16.7621 15.966 16.479 16.2723L13.3178 19.6629V11.305C13.3178 10.8838 12.9733 10.5396 12.5524 10.5396C12.1315 10.5396 11.787 10.8838 11.787 11.305V19.6629L8.63351 16.2723C8.34268 15.9663 7.86037 15.9433 7.55431 16.2341C7.24825 16.525 7.22528 17.0073 7.51611 17.3133L11.9937 22.1276Z" fill="black"/>
</svg>
