<svg width="57" height="100" viewBox="0 0 57 100" fill="none" xmlns="http://www.w3.org/2000/svg">
<path d="M35.208 100H19.1257C16.4394 100 14.2542 97.8241 14.2542 95.1492V59.0286H4.87144C2.18518 59.0286 0 56.852 0 54.1779V38.7001C0 36.0252 2.18518 33.8493 4.87144 33.8493H14.2542V26.0986C14.2542 18.4135 16.6777 11.8752 21.2618 7.19147C25.8666 2.48642 32.3018 0 39.8718 0L52.137 0.0198363C54.8187 0.0244141 57 2.20032 57 4.87061V19.2413C57 21.9162 54.8156 24.0921 52.1301 24.0921L43.8721 24.0952C41.3536 24.0952 40.7123 24.5979 40.5752 24.752C40.3491 25.0076 40.0802 25.7301 40.0802 27.7252V33.8486H51.5095C52.3699 33.8486 53.2035 34.0599 53.9199 34.4582C55.4653 35.318 56.4261 36.9438 56.4261 38.7009L56.42 54.1786C56.42 56.852 54.2348 59.0279 51.5486 59.0279H40.0802V95.1492C40.0802 97.8241 37.8943 100 35.208 100ZM20.1416 94.1376H34.192V56.4041C34.192 54.6181 35.6516 53.1654 37.4445 53.1654H50.5326L50.5379 39.7118H37.4437C35.6509 39.7118 34.192 38.2591 34.192 36.4731V27.7252C34.192 25.4349 34.4257 22.8302 36.1619 20.8725C38.2597 18.5059 41.5659 18.2327 43.8706 18.2327L51.1126 18.2297V5.88074L39.8672 5.86243C27.7016 5.86243 20.1416 13.6169 20.1416 26.0986V36.4731C20.1416 38.2584 18.6828 39.7118 16.8899 39.7118H5.88741V53.1654H16.8899C18.6828 53.1654 20.1416 54.6181 20.1416 56.4041V94.1376ZM52.1255 5.88226H52.1263H52.1255Z" fill="black"/>
</svg>
