<svg width="100" height="66" viewBox="0 0 100 66" fill="none" xmlns="http://www.w3.org/2000/svg">
<path d="M99.9463 45.4223C99.6971 39.6928 98.7007 33.3405 97.2061 27.3619C95.7114 21.6324 93.8431 16.2766 91.6011 12.1663C82.8823 -3.15386 73.4162 -0.78733 62.0818 2.20197C58.4697 3.07385 54.6085 4.07028 50.6228 4.44395H49.3772C45.3915 4.07028 41.5303 3.07385 37.9182 2.20197C26.5838 -0.662776 17.1177 -3.15386 8.39888 12.2909C6.15691 16.4012 4.16404 21.757 2.79394 27.4865C1.29929 33.4651 0.302858 39.8174 0.0537492 45.5468C-0.195359 51.8991 0.427412 56.5076 1.79751 59.746C3.16761 62.7353 5.16047 64.6036 7.77611 65.351C10.1426 65.9737 12.8828 65.7246 15.7476 64.4791C20.6052 62.4862 26.2101 58.2514 31.6905 53.1447C35.5517 49.408 42.7759 47.5397 50 47.5397C57.2242 47.5397 64.4483 49.408 68.3095 53.1447C73.7899 58.2514 79.3948 62.4862 84.2524 64.4791C87.1172 65.6001 89.8574 65.9737 92.2239 65.351C94.715 64.6036 96.8324 62.8599 98.2025 59.6215C99.5726 56.5076 100.195 51.8991 99.9463 45.4223ZM93.9677 57.8777C93.2203 59.6215 92.2239 60.6179 90.9784 60.9916C89.6083 61.3652 87.8645 61.1161 85.8716 60.3688C81.5122 58.625 76.4055 54.7639 71.4233 50.0308C66.6903 45.2977 58.3451 42.9312 50 42.9312C41.6549 42.9312 33.3097 45.2977 28.4521 49.7817C23.3454 54.5148 18.2387 58.5005 14.0038 60.1197C12.011 60.867 10.2672 61.2407 8.8971 60.7425C7.65156 60.3688 6.65512 59.3724 5.9078 57.6286C4.91137 55.2621 4.41315 51.4009 4.66226 45.6714C4.91137 40.3156 5.78324 34.2124 7.2779 28.4829C8.64799 23.1271 10.3918 18.1449 12.5092 14.4083C19.3597 2.07742 27.3311 4.07029 36.7973 6.56137C40.6584 7.5578 44.6442 8.55424 49.0036 8.9279C49.1281 8.9279 49.1281 8.9279 49.2527 8.9279H50.6228C50.7473 8.9279 50.7473 8.9279 50.8719 8.9279C55.3558 8.55424 59.3416 7.5578 63.2028 6.56137C72.6689 4.19484 80.6403 2.07742 87.4908 14.4083C89.6083 18.1449 91.352 23.0025 92.7221 28.4829C94.0922 34.2124 95.0886 40.191 95.3378 45.6714C95.5869 51.4009 95.0886 55.2621 93.9677 57.8777Z" fill="#595959"/>
<path d="M38.541 21.1342C37.2955 20.0132 35.8009 19.1413 34.0571 19.0168C33.9325 17.3976 33.1852 15.7784 32.0642 14.6574L31.9397 14.5328C30.5696 13.1627 28.8258 12.4154 26.8329 12.4154C24.8401 12.4154 22.9718 13.2873 21.7262 14.5328C20.6052 15.6538 19.7334 17.273 19.6088 19.0168C17.865 19.1413 16.3704 19.8887 15.1249 21.0096L15.0003 21.1342C13.6302 22.5043 12.8829 24.2481 12.8829 26.2409C12.8829 28.2338 13.7548 30.1021 15.0003 31.3477C16.2458 32.5932 17.7405 33.3405 19.6088 33.4651C19.7334 35.2088 20.4807 36.828 21.7262 37.949C23.0963 39.3191 24.8401 40.0665 26.8329 40.0665C28.8258 40.0665 30.6941 39.1946 31.9397 37.949C33.0607 36.7035 33.9325 35.2088 34.0571 33.4651C35.8009 33.3405 37.4201 32.5932 38.541 31.3477C39.9111 29.9776 40.6585 28.2338 40.6585 26.2409C40.6585 24.2481 39.7866 22.3797 38.541 21.1342ZM35.4272 28.1092C34.929 28.6075 34.3062 28.8566 33.5589 28.8566H31.8151C30.5696 28.8566 29.4486 29.853 29.4486 31.2231V32.8423C29.4486 33.5896 29.1995 34.2124 28.7013 34.7106C28.203 35.2088 27.5803 35.4579 26.8329 35.4579C26.0856 35.4579 25.4629 35.2088 24.9646 34.7106C24.4664 34.2124 24.2173 33.5896 24.2173 32.8423V31.0985C24.2173 29.853 23.2209 28.732 21.8508 28.732H20.107C19.3597 28.732 18.7369 28.4829 18.2387 27.9847C17.865 27.611 17.4914 26.9883 17.4914 26.2409C17.4914 25.4936 17.7405 24.8708 18.2387 24.3726C18.2387 24.3726 18.2387 24.3726 18.3633 24.2481C18.8615 23.8744 19.4842 23.6253 20.107 23.6253H21.8508C23.0963 23.6253 24.2173 22.6289 24.2173 21.2588V19.515C24.2173 18.7677 24.4664 18.1449 24.9646 17.6467C25.4629 17.1485 26.0856 16.8994 26.8329 16.8994C27.5803 16.8994 28.203 17.1485 28.7013 17.6467C28.7013 17.6467 28.7013 17.6467 28.8258 17.7712C29.1995 18.2695 29.4486 18.8922 29.4486 19.515V21.2588C29.4486 22.5043 30.445 23.6253 31.8151 23.6253H33.5589C34.3062 23.6253 34.929 23.8744 35.4272 24.3726C35.9254 24.8708 36.1745 25.4936 36.1745 26.2409C36.1745 26.9883 35.9254 27.611 35.4272 28.1092Z" fill="#595959"/>
<path d="M71.6724 21.757C74.0801 21.757 76.0318 19.8052 76.0318 17.3976C76.0318 14.9899 74.0801 13.0382 71.6724 13.0382C69.2648 13.0382 67.313 14.9899 67.313 17.3976C67.313 19.8052 69.2648 21.757 71.6724 21.757Z" fill="#595959"/>
<path d="M71.6724 39.4437C74.0801 39.4437 76.0318 37.4919 76.0318 35.0843C76.0318 32.6767 74.0801 30.7249 71.6724 30.7249C69.2648 30.7249 67.313 32.6767 67.313 35.0843C67.313 37.4919 69.2648 39.4437 71.6724 39.4437Z" fill="#595959"/>
<path d="M62.8291 30.6003C65.2367 30.6003 67.1885 28.6486 67.1885 26.2409C67.1885 23.8333 65.2367 21.8815 62.8291 21.8815C60.4214 21.8815 58.4697 23.8333 58.4697 26.2409C58.4697 28.6486 60.4214 30.6003 62.8291 30.6003Z" fill="#595959"/>
<path d="M80.5158 30.6003C82.9234 30.6003 84.8752 28.6486 84.8752 26.2409C84.8752 23.8333 82.9234 21.8815 80.5158 21.8815C78.1081 21.8815 76.1564 23.8333 76.1564 26.2409C76.1564 28.6486 78.1081 30.6003 80.5158 30.6003Z" fill="#595959"/>
</svg>
