<svg width="90" height="100" viewBox="0 0 90 100" fill="none" xmlns="http://www.w3.org/2000/svg">
<path d="M20.3827 29.6143H3.52478C1.63498 29.6143 0.0976562 31.1516 0.0976562 33.0414V96.5736C0.0976562 98.4627 1.63498 100 3.52478 100H20.3827C22.2717 100 23.8091 98.4627 23.8091 96.5736V33.0414C23.8091 31.1516 22.2717 29.6143 20.3827 29.6143ZM17.9413 94.1322H5.96542V35.482H17.9413V94.1322Z" fill="black"/>
<path d="M11.9537 0C5.36194 0 0 5.36194 0 11.953C0 18.5448 5.36194 23.9067 11.9537 23.9067C18.544 23.9067 23.9067 18.5448 23.9067 11.953C23.9067 5.36194 18.5448 0 11.9537 0ZM11.9537 18.0389C8.59756 18.0389 5.86777 15.3091 5.86777 11.953C5.86777 8.59756 8.59756 5.86777 11.9537 5.86777C15.3091 5.86777 18.0389 8.59756 18.0389 11.953C18.0389 15.3084 15.3091 18.0389 11.9537 18.0389Z" fill="black"/>
<path d="M78.3295 37.0628C74.2997 33.699 69.1765 31.9 63.9092 31.9977C60.6377 32.0579 57.441 32.8468 54.5441 34.275V32.888C54.5441 31.0806 53.0785 29.615 51.2711 29.615H34.1065C32.2991 29.615 30.8335 31.0806 30.8335 32.888V96.727C30.8335 98.5351 32.2991 100 34.1065 100H51.6099C53.2303 100 54.5441 98.6862 54.5441 97.0665V59.0042C54.5441 55.7457 57.0939 52.9884 60.3501 52.8915C63.7345 52.7916 66.5192 55.5145 66.5192 58.8768V97.1275C66.5192 98.7137 67.8055 100 69.3917 100H86.2137C87.7999 100 89.0862 98.7137 89.0862 97.1275V60.0403C89.0862 51.1444 85.1655 42.7688 78.3295 37.0628ZM83.2184 94.1322H72.3878V58.8768C72.3878 52.3399 67.0693 47.0215 60.5317 47.0215C53.9948 47.0215 48.6764 52.3399 48.6764 58.8768V94.1322H36.7013V35.482H48.6764V39.7461H48.6802C48.6794 40.4373 48.9197 41.1316 49.4141 41.6908C50.4876 42.9039 52.3423 43.0168 53.5554 41.9426C56.4461 39.3837 60.1617 37.9356 64.0175 37.8639C67.8773 37.7906 71.6233 39.1075 74.5698 41.5672C80.0667 46.1555 83.2184 52.8885 83.2184 60.0403V94.1322Z" fill="black"/>
</svg>
