<svg width="140" height="140" viewBox="0 0 140 140" fill="none" xmlns="http://www.w3.org/2000/svg">
<path d="M71.5781 74.7893C71.5847 73.7711 71.1067 72.8104 70.2905 72.2016L45.9853 54.4814C44.5072 53.4037 42.4365 53.7196 41.347 55.1891L41.3313 55.2106C39.737 57.3796 39.6324 60.3033 41.0676 62.5808L61.3223 94.847C62.7516 97.1211 65.1876 98.5688 67.8683 98.7374L89.0766 99.9798L88.9118 100.206C87.828 101.692 88.1545 103.776 89.641 104.86L92.3327 106.822C93.8192 107.906 95.9028 107.58 96.9866 106.093L101.024 109.037C101.767 109.578 102.809 109.415 103.351 108.672L117.088 89.8306C117.63 89.0874 117.466 88.0455 116.723 87.5037L112.686 84.5601C113.769 83.0736 113.443 80.9899 111.956 79.9061L109.265 77.9437C107.778 76.86 105.695 77.1865 104.611 78.673L104.446 78.8991L96.7729 59.083C95.7916 56.5848 93.6692 54.7107 91.0688 54.0462L54.151 44.6298C51.5447 43.9613 48.7948 44.9553 47.2184 47.1358L47.2017 47.1587C46.137 48.6454 46.47 50.7125 47.9477 51.7898L72.2812 69.5306C73.097 70.1136 74.1428 70.2707 75.0939 69.9529C76.578 69.4922 78.1921 69.7483 79.4607 70.6458C80.7294 71.5433 81.5082 72.9799 81.568 74.5328C81.6138 76.3173 80.7041 77.9907 79.1816 78.9227C77.659 79.8546 75.755 79.9035 74.1866 79.0509C72.6183 78.1983 71.6239 76.5738 71.5781 74.7893ZM113.415 89.2141L101.641 105.364L98.949 103.401L110.723 87.2517L113.415 89.2141ZM109.994 82.5977L94.295 104.131L91.6034 102.168L107.302 80.6354L109.994 82.5977ZM81.9193 81.1188C83.892 79.457 84.9903 76.9799 84.8972 74.4022C84.7981 71.8189 83.505 69.4282 81.3972 67.9314C79.2895 66.4347 76.6061 66.0017 74.1345 66.7595L49.9022 49.1089L49.91 49.0982C50.6873 48.0211 52.0442 47.529 53.3312 47.8576L90.2444 57.2748C91.8049 57.6698 93.0796 58.7924 93.6685 60.2906L102.113 82.0994L91.4099 96.7795L68.0672 95.4113C66.4591 95.3105 64.9984 94.4405 64.1439 93.0745L43.89 60.8129C43.1836 59.692 43.2332 58.2534 44.0151 57.1838L44.0229 57.173L68.2474 74.8343C68.289 78.0481 70.1763 80.9511 73.0968 82.2933C76.0172 83.6354 79.4493 83.1772 81.9152 81.1158L81.9193 81.1188Z" fill="#595959"/>
<path d="M88.7991 91.8791C89.5424 92.421 90.5842 92.2578 91.1261 91.5145L97.0132 83.4397C97.5551 82.6964 97.3919 81.6546 96.6486 81.1127C95.9053 80.5708 94.8635 80.734 94.3216 81.4773L88.4345 89.5521C87.8926 90.2954 88.0558 91.3372 88.7991 91.8791Z" fill="#595959"/>
<path d="M90.7479 30.0347C73.2108 20.7066 51.6197 24.0898 37.7763 38.335C34.8789 36.9075 31.3746 37.7707 29.4717 40.3807C27.5689 42.9907 27.8189 46.5911 30.0642 48.913C20.7361 66.4501 24.1192 88.0412 38.3644 101.885C36.865 104.904 37.845 108.567 40.6516 110.435C43.4582 112.302 47.2157 111.791 49.4215 109.242C51.6272 106.692 51.593 102.9 49.3415 100.391C47.09 97.8822 43.324 97.439 40.5515 99.3568C27.7135 86.4945 24.6306 66.8227 32.9183 50.6496C35.6244 51.4924 38.5667 50.5191 40.2364 48.2289C41.9061 45.9387 41.9327 42.8397 40.3027 40.5211C53.1647 27.6782 72.8403 24.5928 89.0162 32.8821C88.0549 36.0797 89.6193 39.4935 92.6689 40.853C95.7185 42.2125 99.3033 41.0942 101.039 38.2419C102.775 35.3896 102.121 31.6918 99.5117 29.608C96.9029 27.5242 93.152 27.7035 90.7538 30.0267L90.7479 30.0347ZM46.2967 102.115C47.7833 103.199 48.1098 105.283 47.026 106.769C45.9422 108.256 43.8585 108.582 42.372 107.498C40.8855 106.414 40.559 104.331 41.6428 102.844C42.1632 102.13 42.9459 101.653 43.8187 101.516C44.6915 101.379 45.5829 101.595 46.2967 102.115ZM37.5458 46.2673C36.4621 47.7538 34.3784 48.0803 32.8919 46.9965C31.4053 45.9127 31.0788 43.8291 32.1626 42.3426C33.2464 40.856 35.3301 40.5295 36.8166 41.6133C37.5305 42.1338 38.0083 42.9165 38.1451 43.7893C38.2819 44.6621 38.0663 45.5534 37.5458 46.2673ZM98.0476 36.7872C96.9638 38.2737 94.8801 38.6002 93.3936 37.5164C91.9071 36.4326 91.5806 34.349 92.6644 32.8624C93.7482 31.3759 95.8318 31.0494 97.3184 32.1332C98.8049 33.217 99.1314 35.3006 98.0476 36.7872Z" fill="#595959"/>
</svg>
