<svg width="121" height="100" viewBox="0 0 121 100" fill="none" xmlns="http://www.w3.org/2000/svg">
<path d="M46.0094 100C25.8281 100 9.87751 96.4681 2.24632 90.3118L2.09779 90.1917L1.9631 90.0568C0.150321 88.24 -0.44379 85.8568 0.334827 83.5188L0.405862 83.3247C1.35054 80.9581 3.66517 79.365 6.17354 79.3502C11.336 79.2606 15.8528 78.6442 19.9516 77.4475C13.4136 74.4017 8.87195 69.1279 6.16985 61.4949C5.26115 59.1144 6.04531 56.4752 8.13946 54.9015C8.65607 54.5124 9.24004 54.2186 9.85813 54.0217C6.2252 49.8208 3.54155 45.0405 2.03875 39.9847L1.9917 39.8277L1.95941 39.6669C1.44925 37.1099 2.59042 34.4808 4.6818 33.3488C5.55913 32.8443 6.51211 32.5828 7.46877 32.5606C6.43738 30.3354 5.68736 28.051 5.2427 25.7528C4.00835 19.3839 5.02683 12.9994 8.26861 6.77652L9.01863 5.27394C9.6192 4.0717 10.7668 3.22707 12.0897 3.01176C13.4127 2.79737 14.7688 3.23539 15.7162 4.18443L17.0825 5.55487C27.8761 16.8898 37.5443 22.268 54.2596 25.9478C55.006 19.5207 57.78 13.5464 62.2552 8.84464C67.581 3.25018 74.6928 0.11103 82.2807 0.00383537H82.3305C87.8666 0.00383537 94.7339 3.16978 98.8872 5.40239C102.45 4.23434 106.743 2.42588 111.197 0.513935C113.281 -0.465604 115.85 -0.0174189 117.488 1.62377C119.094 3.23262 119.54 5.50127 118.688 7.70616C118.364 8.60899 117.997 9.4952 117.588 10.362C118.198 10.642 118.756 11.0218 119.227 11.494C120.652 12.9217 121.247 15.1562 120.74 17.1874L120.686 17.3805C118.979 22.8899 115.7 27.3773 111.364 30.194C110.64 68.822 81.6008 100 46.0094 100ZM9.04631 86.3558C16.2374 90.431 29.9417 92.8965 46.0094 92.8965C61.4572 92.8965 76.0351 86.2532 87.0566 74.1901C98.1685 62.0281 104.288 45.8777 104.288 28.7136V28.5204C104.288 26.9661 105.142 25.5476 106.517 24.8176C109.305 23.3381 111.564 20.8181 113.032 17.5958C111.518 17.8351 109.978 17.2262 109.034 15.9565C107.937 14.4807 107.925 12.4874 109.004 10.9987C109.586 10.1947 110.113 9.35843 110.584 8.49348C106.738 10.1116 103.086 11.5624 99.9149 12.5262C98.7626 12.8755 97.4785 12.7388 96.4259 12.1501C90.7809 8.99989 85.5234 7.11658 82.3535 7.10734C70.6567 7.28662 61.1464 17.3214 61.1464 29.488C61.1464 30.7457 60.5891 31.9248 59.6196 32.7241C58.6491 33.5226 57.387 33.8423 56.1545 33.5983C36.881 29.7948 25.46 24.0913 13.5833 12.1363C11.8812 16.2217 11.4163 20.3367 12.2032 24.3999C13.0012 28.5158 15.124 32.64 18.3427 36.3263C19.5659 37.7253 19.7283 39.7269 18.7467 41.3062C17.7689 42.8799 15.91 43.6155 14.123 43.1359C12.7263 42.7607 11.4421 42.2682 10.2244 41.6352C12.7051 47.0328 16.9718 52.0248 22.3354 55.7064C23.8899 56.7737 24.5393 58.7633 23.9157 60.5449C23.2911 62.3293 21.5466 63.478 19.661 63.3375C17.6065 63.185 15.7863 62.7941 14.111 62.1353C17.1185 68.2703 21.9239 71.646 29.3273 72.9361C31.0902 73.2438 32.463 74.6383 32.7434 76.406C33.0248 78.1738 32.1511 79.9259 30.5708 80.7659C24.2607 84.1167 17.3639 85.915 9.04631 86.3558Z" fill="black"/>
</svg>
